<?xml version="1.0" encoding="UTF-8" standalone="no"?>
<svg width="339px" height="286px" viewBox="0 0 339 286" version="1.1" xmlns="http://www.w3.org/2000/svg" xmlns:xlink="http://www.w3.org/1999/xlink">
    <!-- Generator: Sketch 41.2 (35397) - http://www.bohemiancoding.com/sketch -->
    <title>aframe-sticker-diecut</title>
    <desc>Created with Sketch.</desc>
    <defs>
        <polygon id="path-1" points="0.0746666648 72.4173315 91.2999977 72.4173315 91.2999977 0.143999996 0.0746666648 0.143999996"></polygon>
        <polygon id="path-3" points="0.249333327 11.5906664 17.7599996 11.5906664 17.7599996 0.981333309 0.249333327 0.981333309"></polygon>
        <linearGradient x1="-0.00407166124%" y1="49.9933373%" x2="99.9948046%" y2="49.9933373%" id="linearGradient-5">
            <stop stop-color="#6C5044" offset="0%"></stop>
            <stop stop-color="#6C5044" offset="60.980026%"></stop>
            <stop stop-color="#A97E6D" offset="100%"></stop>
        </linearGradient>
        <polygon id="path-6" points="1.08133331 11.6146664 18.5906662 11.6146664 18.5906662 1.00533331 1.08133331 1.00533331"></polygon>
        <linearGradient x1="-0.0166938111%" y1="50.0028554%" x2="99.9821824%" y2="50.0028554%" id="linearGradient-8">
            <stop stop-color="#6C5044" offset="0%"></stop>
            <stop stop-color="#6C5044" offset="60.980026%"></stop>
            <stop stop-color="#A97E6D" offset="100%"></stop>
        </linearGradient>
        <polygon id="path-9" points="0.458666655 11.5906664 17.9693329 11.5906664 17.9693329 0.981333309 0.458666655 0.981333309"></polygon>
        <linearGradient x1="-0.00651465798%" y1="49.9933373%" x2="99.9923616%" y2="49.9933373%" id="linearGradient-11">
            <stop stop-color="#6C5044" offset="0%"></stop>
            <stop stop-color="#6C5044" offset="60.980026%"></stop>
            <stop stop-color="#A97E6D" offset="100%"></stop>
        </linearGradient>
    </defs>
    <g id="Page-1" stroke="none" stroke-width="1" fill="none" fill-rule="evenodd">
        <g id="aframe-sticker-diecut">
            <g id="g10" transform="translate(169.000000, 142.520000) scale(1, -1) translate(-169.000000, -142.520000) translate(0.000000, -0.480000)">
                <g id="g12">
                    <g id="g14-Clipped">
                        <g id="g14" transform="translate(-0.000006, 0.666655)">
                            <g id="g20" transform="translate(0.821600, 0.469200)" fill="#FFFFFF">
                                <path d="M0,95.9999976 L50.1786654,123.894664 L50.1786654,130.394663 C50.1773321,131.96533 50.4479987,133.62133 50.9666654,135.20533 L51.3599987,136.403997 L51.7679987,137.142663 C52.0066654,137.635997 52.2719987,138.11333 52.5586654,138.574663 L53.4559987,140.19733 L54.117332,140.662663 C55.1266653,141.802663 56.3079986,142.799996 57.6399986,143.627996 C58.1853319,143.966663 58.5666652,144.190663 58.9253319,144.40133 C59.1186652,144.515996 59.2986652,144.618663 59.5479985,144.77733 L59.6933318,144.870663 C63.6266651,147.38533 66.2119983,148.954663 67.374665,149.53733 C69.6213316,150.66133 72.1333315,151.255996 74.6373315,151.255996 C77.5826647,151.255996 80.471998,150.454663 82.9959979,148.938663 C83.3519979,148.727996 84.7559979,147.926663 86.2973312,147.046663 C87.2146645,146.522663 88.1773311,145.971996 89.0226644,145.487996 L90.7266644,146.435996 L127.13733,244.631994 L196.386662,283.087993 L213.474661,276.585326 L247.755994,145.04533 C251.547994,147.46533 254.03466,148.971996 255.17466,149.54133 C257.41066,150.659996 259.92266,151.255996 262.427993,151.255996 C265.37066,151.255996 268.259993,150.455996 270.78266,148.94133 C271.141327,148.72933 272.58266,147.907996 274.149326,147.010663 C275.581326,146.19333 278.843993,144.315996 278.843993,144.315996 L279.303993,144.046663 C282.185326,142.315996 286.918659,138.223997 286.691993,129.986663 L286.687993,123.07333 L336.326658,96.1279976 L167.893329,0 L0,95.9999976 Z" id="path22"></path>
                            </g>
                            <g id="g24" transform="translate(27.387999, 15.826533)" fill="#398D7F">
                                <polygon id="path26" points="141.33333 0 282.34666 80.4786647 139.78933 157.863996 0.583999985 80.4786647"></polygon>
                            </g>
                            <g id="g28" transform="translate(138.745730, 233.171594)" fill="#B7224B">
                                <polygon id="path30" points="0 2.6666666 4.98799988 0.814666646 64.3813317 33.8653325 59.5159985 35.7173324"></polygon>
                            </g>
                            <g id="g32" transform="translate(143.127596, 48.370799)" fill="#EE3163">
                                <polygon id="path34" points="59.9999985 218.666661 107.835997 35.1173325 49.0506654 1.12399997 0.605333318 185.615995"></polygon>
                            </g>
                            <g id="g36" transform="translate(90.221864, 49.427065)" fill="#981E3F">
                                <path d="M19.9999995,93.333331 L51.2266654,177.306662 L82.6866646,57.8426652 L19.9999995,93.333331 Z M53.5119987,184.558662 L48.5239988,186.410662 L0.851999979,57.8426652 L5.85199985,54.5506653 L18.4146662,88.5773311 L84.2733312,51.501332 L97.0786642,2.71733327 L101.957331,0.0679999983 L53.5119987,184.558662 Z" id="path38"></path>
                            </g>
                            <g id="g40" transform="translate(109.448531, 142.734396)" fill="#62C6F1">
                                <polygon id="path42" points="31.9999992 83.9999979 0.773333314 0.026666666 47.3746655 25.6173327"></polygon>
                            </g>
                            <g id="g44" transform="translate(110.221864, 106.760397)" fill="#EFE51F">
                                <polygon id="path46" points="0 35.9999991 46.6013322 61.5919985 62.6866651 0.509333321"></polygon>
                            </g>
                            <g id="g48" transform="translate(95.302931, 103.337331)" fill="#62C6F1">
                                <polygon id="path50" points="13.333333 34.6666658 0.771999981 0.639999984 37.4666657 21.0799995"></polygon>
                            </g>
                            <g id="g52" transform="translate(95.999998, 51.999999)">
                                <g id="g66">
                                    <g id="g64-Clipped">
                                        <mask id="mask-2" fill="white">
                                            <use xlink:href="#path-1"></use>
                                        </mask>
                                        <g id="path56"></g>
                                        <g id="g64" opacity="0.10000598" mask="url(#mask-2)">
                                            <g transform="translate(0.000000, -1.333333)" id="g62">
                                                <g transform="translate(0.074533, 1.310667)">
                                                    <polygon id="path60" fill="#000000" points="0 51.9999987 36.6959991 72.4399982 78.419998 48.9506654 91.2253311 0.166666662"></polygon>
                                                </g>
                                            </g>
                                        </g>
                                    </g>
                                </g>
                            </g>
                            <g id="g68" transform="translate(253.333327, 90.666664)">
                                <g id="g82">
                                    <g id="g80-Clipped">
                                        <mask id="mask-4" fill="white">
                                            <use xlink:href="#path-3"></use>
                                        </mask>
                                        <g id="path72"></g>
                                        <g id="g80" opacity="0.10000598" mask="url(#mask-4)">
                                            <g transform="translate(-1.333333, 0.000000)" id="g78">
                                                <g transform="translate(0.426400, 0.952400)">
                                                    <path d="M18.6666662,5.3333332 C18.6666662,2.40399994 14.7466663,0.0293333326 9.91199975,0.0293333326 C5.07599987,0.0293333326 1.15599997,2.40399994 1.15599997,5.3333332 C1.15599997,8.26266646 5.07599987,10.6373331 9.91199975,10.6373331 C14.7466663,10.6373331 18.6666662,8.26266646 18.6666662,5.3333332" id="path76" fill="#000000"></path>
                                                </g>
                                            </g>
                                        </g>
                                    </g>
                                </g>
                            </g>
                        </g>
                    </g>
                </g>
                <g id="g84" transform="translate(259.999988, 96.666653)" fill="url(#linearGradient-5)">
                    <g id="g86-Clipped">
                        <g id="g86">
                            <g id="g92">
                                <g id="g94">
                                    <path d="M1.00399997,11.553333 L1.00399997,1.03733331 C1.00399997,1.03733331 1.36666663,0.346666658 2.64133327,0.346666658 L2.64133327,0.346666658 C3.91466657,0.346666658 4.27866656,1.03733331 4.27866656,1.03733331 L4.27866656,1.03733331 L4.27866656,11.553333 L1.00399997,11.553333 Z" id="path104"></path>
                                </g>
                            </g>
                        </g>
                    </g>
                </g>
                <g id="g106" transform="translate(140.000000, 48.000000)">
                    <g id="g108-Clipped">
                        <g id="g108" transform="translate(-0.000009, 0.666654)">
                            <g id="g114" transform="translate(112.125997, 56.609999)" fill="#45ADAA">
                                <path d="M0,7.9999998 L0,26.2653327 C0,26.2653327 0.123999997,27.2799993 0.890666644,27.8119993 C1.79866662,28.442666 2.47199994,28.9266659 3.36133325,29.4946659 C5.82799985,31.0706659 9.07466644,33.0946658 9.82399975,33.4693325 C10.8426664,33.9786658 11.8879997,33.8039992 12.6159997,33.3679992 C13.3439997,32.9306658 20.0839995,29.1026659 21.1759995,28.4479993 C22.2679994,27.7933326 22.0493328,26.9199993 22.0493328,25.682666 L22.0493328,8.27866646 C22.0493328,7.04266649 21.6293328,6.61599983 20.4653328,5.96133318 C19.2999995,5.30666653 14.377333,2.15466661 12.4986664,1.32266663 C11.2266664,0.758666648 10.1879997,0.65066665 9.02399977,1.23199997 C7.85866647,1.81466662 1.30266663,5.73333319 1.30266663,5.73333319 C1.30266663,5.73333319 0,6.61733317 0,7.9999998" id="path116"></path>
                            </g>
                            <g id="g118" transform="translate(110.878931, 57.135732)" fill="#3B9894">
                                <path d="M22.6666661,6.6666665 C21.9546661,6.21066651 15.4879996,2.31066661 15.009333,2.08133328 C14.7839996,1.97333328 14.5706663,1.82533329 14.3386663,1.99866662 C14.1519996,2.13733328 14.1279996,2.29066661 14.1119996,2.41733327 L14.0719996,20.7866661 C14.0719996,20.7866661 14.1759996,21.3893328 14.0479996,21.8826661 C13.9199997,22.3759994 13.385333,22.8413328 13.385333,22.8413328 L5.13999987,27.3839993 C5.13999987,27.3839993 4.57333322,27.610666 4.33599989,28.122666 C4.17733323,28.4653326 4.39866656,28.7679993 4.56399989,28.9399993 C3.69866657,28.3853326 3.35066658,28.2173326 2.41599994,27.6373326 C1.24666664,26.9119993 1.24666664,25.7399994 1.24666664,25.7399994 L1.24666664,7.47466648 C1.24666664,6.09199985 2.54933327,5.20799987 2.54933327,5.20799987 C2.54933327,5.20799987 9.10666644,1.2893333 10.2706664,0.706666649 C11.4346664,0.123999997 12.4746664,0.233333328 13.7466663,0.79599998 C15.6239996,1.62799996 20.5479995,4.77999988 21.7119995,5.43466653 C22.8093328,6.05199985 23.2306661,6.48933317 23.2773328,7.57066648 C23.2239994,7.30266648 23.0853328,6.93466649 22.6666661,6.6666665" id="path120"></path>
                            </g>
                            <g id="g122" transform="translate(111.962131, 57.476932)" fill="#2E7976">
                                <path d="M10.6666664,0 C10.9399997,0.0413333323 11.1759997,0.191999995 11.1959997,0.619999985 C11.2399997,1.5293333 11.1519997,17.8306662 11.1959997,18.8853329 C11.2399997,19.9399995 11.3706664,20.8506661 10.3146664,21.3959995 C9.25999977,21.9413328 3.07466659,25.5053327 2.01999995,26.1599993 C1.27999997,26.6199993 0.483999988,26.3719993 0.289333326,26.0493327 C0.158666663,25.6493327 0.163999996,25.398666 0.163999996,25.398666 L0.163999996,7.13333315 C0.163999996,5.75066652 1.46666663,4.86666654 1.46666663,4.86666654 C1.46666663,4.86666654 6.96799983,1.57866663 8.78133311,0.582666652 C9.11199977,0.430666656 9.36399977,0.315999992 9.54533309,0.235999994 C9.92266642,0.0893333311 10.2946664,0.0079999998 10.6666664,0" id="path124"></path>
                            </g>
                            <g id="g126" transform="translate(123.968530, 77.058265)" fill="#57C4C1">
                                <path d="M9.3333331,7.9999998 C9.1453331,8.11333313 8.77999978,8.32533313 8.31466646,8.59333312 C9.01866644,8.21333313 8.60666645,7.91866647 8.60666645,7.91866647 L0.127999997,3.01333326 L0.295999993,2.91866659 C0.295999993,2.91866659 0.830666646,2.45333327 0.958666643,1.95999995 C1.08666664,1.46666663 0.982666642,0.865333312 0.982666642,0.865333312 L0.982666642,0.793333313 C4.04933323,2.5586666 9.35599977,5.61599986 9.79466642,5.78133319 C10.3586664,5.99466652 10.1639997,4.71733322 10.1866664,4.89599988 L10.2066664,4.91999988 L10.2066664,5.23466654 C10.2066664,6.47199984 10.4253331,7.34533315 9.3333331,7.9999998" id="path128"></path>
                            </g>
                            <g id="g130" transform="translate(120.926930, 76.351731)" fill="#42A5A2">
                                <path d="M3.9999999,2.6666666 C3.8719999,3.15999992 3.33733325,3.62533324 3.33733325,3.62533324 L3.17066659,3.71999991 L1.18799997,2.60933327 C1.2333333,2.58533327 1.31599997,2.5386666 1.35066663,2.52133327 C2.23866661,2.06133328 2.28266661,1.33599997 2.25066661,0.490666654 C2.53199994,0.653333317 3.61866658,1.26666664 4.0239999,1.49999996 L4.0239999,1.57066663 C4.0239999,1.57066663 4.1279999,2.17333328 3.9999999,2.6666666" id="path132"></path>
                            </g>
                            <g id="g134">
                                <g id="g148">
                                    <g id="g146-Clipped">
                                        <mask id="mask-7" fill="white">
                                            <use xlink:href="#path-6"></use>
                                        </mask>
                                        <g id="path138"></g>
                                        <g id="g146" opacity="0.10000598" mask="url(#mask-7)">
                                            <g transform="translate(-1.333333, 0.000000)" id="g144">
                                                <g transform="translate(1.258000, 0.976133)">
                                                    <path d="M18.6666662,5.3333332 C18.6666662,2.40399994 14.7466663,0.0293333326 9.91199975,0.0293333326 C5.07599987,0.0293333326 1.15599997,2.40399994 1.15599997,5.3333332 C1.15599997,8.26266646 5.07599987,10.6373331 9.91199975,10.6373331 C14.7466663,10.6373331 18.6666662,8.26266646 18.6666662,5.3333332" id="path142" fill="#000000"></path>
                                                </g>
                                            </g>
                                        </g>
                                    </g>
                                </g>
                            </g>
                        </g>
                    </g>
                </g>
                <g id="g150" transform="translate(147.999991, 53.999987)" fill="url(#linearGradient-8)">
                    <g id="g152-Clipped">
                        <g id="g152">
                            <g id="g158">
                                <g id="g160">
                                    <path d="M0.502666654,11.5759997 L0.502666654,1.06133331 C0.502666654,1.06133331 0.866666645,0.369333324 2.13866661,0.369333324 L2.13866661,0.369333324 C3.41199991,0.369333324 3.77733324,1.06133331 3.77733324,1.06133331 L3.77733324,1.06133331 L3.77733324,11.5759997 L0.502666654,11.5759997 Z" id="path170"></path>
                                </g>
                            </g>
                        </g>
                    </g>
                </g>
                <g id="g172" transform="translate(65.000000, 62.000000)">
                    <g id="g174-Clipped">
                        <g id="g174" transform="translate(0.333326, -0.000013)">
                            <g id="g180" transform="translate(74.290931, 0.633733)" fill="#45ADAA">
                                <path d="M0,7.9999998 L0,26.2653327 C0,26.2653327 0.123999997,27.2799993 0.890666644,27.8119993 C1.79866662,28.442666 2.47199994,28.9266659 3.36133325,29.4946659 C5.82799985,31.0706659 9.07466644,33.0946658 9.82399975,33.4693325 C10.8426664,33.9786658 11.8879997,33.8039992 12.6159997,33.3679992 C13.3439997,32.9306658 20.0839995,29.1026659 21.1759995,28.4479993 C22.2679994,27.7933326 22.0493328,26.9199993 22.0493328,25.682666 L22.0493328,8.27866646 C22.0493328,7.04266649 21.6293328,6.61599983 20.4653328,5.96133318 C19.2999995,5.30666653 14.377333,2.15466661 12.4986664,1.32266663 C11.2266664,0.758666648 10.1879997,0.65066665 9.02399977,1.23199997 C7.85866647,1.81466662 1.30266663,5.73333319 1.30266663,5.73333319 C1.30266663,5.73333319 0,6.61733317 0,7.9999998" id="path182"></path>
                            </g>
                            <g id="g184" transform="translate(73.043865, 1.159467)" fill="#3B9894">
                                <path d="M22.6666661,6.6666665 C21.9546661,6.21066651 15.4879996,2.31066661 15.009333,2.08133328 C14.7839996,1.97333328 14.5706663,1.82533329 14.3386663,1.99866662 C14.1519996,2.13733328 14.1279996,2.29066661 14.1119996,2.41733327 L14.0719996,20.7866661 C14.0719996,20.7866661 14.1759996,21.3893328 14.0479996,21.8826661 C13.9199997,22.3759994 13.385333,22.8413328 13.385333,22.8413328 L5.13999987,27.3839993 C5.13999987,27.3839993 4.57333322,27.610666 4.33599989,28.122666 C4.17733323,28.4653326 4.39866656,28.7679993 4.56399989,28.9399993 C3.69866657,28.3853326 3.35066658,28.2173326 2.41599994,27.6373326 C1.24666664,26.9119993 1.24666664,25.7399994 1.24666664,25.7399994 L1.24666664,7.47466648 C1.24666664,6.09199985 2.54933327,5.20799987 2.54933327,5.20799987 C2.54933327,5.20799987 9.10666644,1.2893333 10.2706664,0.706666649 C11.4346664,0.123999997 12.4746664,0.233333328 13.7466663,0.79599998 C15.6239996,1.62799996 20.5479995,4.77999988 21.7119995,5.43466653 C22.8093328,6.05199985 23.2306661,6.48933317 23.2773328,7.57066648 C23.2239994,7.30133315 23.0853328,6.93466649 22.6666661,6.6666665" id="path186"></path>
                            </g>
                            <g id="g188" transform="translate(74.127065, 1.500533)" fill="#2E7976">
                                <path d="M10.6666664,0 C10.9399997,0.0413333323 11.1759997,0.191999995 11.1959997,0.619999984 C11.2399997,1.5293333 11.1519997,17.8306662 11.1959997,18.8853329 C11.2399997,19.9399995 11.3706664,20.8506661 10.3146664,21.3959995 C9.25999977,21.9413328 3.07466659,25.5053327 2.01999995,26.1599993 C1.27999997,26.6199993 0.483999988,26.3719993 0.289333326,26.0493327 C0.158666663,25.6493327 0.163999996,25.398666 0.163999996,25.398666 L0.163999996,7.13333315 C0.163999996,5.75066652 1.46666663,4.86666654 1.46666663,4.86666654 C1.46666663,4.86666654 6.96799983,1.57866663 8.78133311,0.582666652 C9.11199977,0.430666656 9.36399977,0.317333325 9.54533309,0.235999994 C9.92266642,0.0893333311 10.2946664,0.0079999998 10.6666664,0" id="path190"></path>
                            </g>
                            <g id="g192" transform="translate(86.133465, 21.081999)" fill="#57C4C1">
                                <path d="M9.3333331,7.9999998 C9.1453331,8.11333313 8.77999978,8.32533313 8.31466646,8.59333312 C9.01866644,8.21333313 8.60666645,7.91866647 8.60666645,7.91866647 L0.127999997,3.01333326 L0.295999993,2.91866659 C0.295999993,2.91866659 0.830666646,2.45333327 0.958666643,1.95999995 C1.08666664,1.46666663 0.982666642,0.865333312 0.982666642,0.865333312 L0.982666642,0.793333313 C4.04933323,2.5586666 9.35599977,5.61599986 9.79466642,5.78133319 C10.3586664,5.99466652 10.1639997,4.71733322 10.1866664,4.89599988 L10.2066664,4.91999988 L10.2066664,5.23466654 C10.2066664,6.47199984 10.4253331,7.34533315 9.3333331,7.9999998" id="path194"></path>
                            </g>
                            <g id="g196" transform="translate(83.091865, 20.375466)" fill="#42A5A2">
                                <path d="M3.9999999,2.6666666 C3.8719999,3.15999992 3.33733325,3.62533324 3.33733325,3.62533324 L3.17066659,3.71999991 L1.18799997,2.60933327 C1.2333333,2.58533327 1.31599997,2.5386666 1.35066663,2.52133327 C2.23866661,2.06133328 2.28266661,1.33599997 2.25066661,0.490666654 C2.53199994,0.653333317 3.61999991,1.26666663 4.0239999,1.49999996 L4.0239999,1.57066663 C4.0239999,1.57066663 4.1279999,2.17333328 3.9999999,2.6666666" id="path198"></path>
                            </g>
                            <g id="g200" transform="translate(0.000000, 29.333333)">
                                <g id="g214">
                                    <g id="g212-Clipped">
                                        <mask id="mask-10" fill="white">
                                            <use xlink:href="#path-9"></use>
                                        </mask>
                                        <g id="path204"></g>
                                        <g id="g212" opacity="0.10000598" mask="url(#mask-10)">
                                            <g transform="translate(-1.333333, 0.000000)" id="g210">
                                                <g transform="translate(0.635600, 0.952400)">
                                                    <path d="M18.6666662,5.3333332 C18.6666662,2.40399994 14.7466663,0.0293333326 9.91199975,0.0293333326 C5.07599987,0.0293333326 1.15599997,2.40399994 1.15599997,5.3333332 C1.15599997,8.26266646 5.07599987,10.6373331 9.91199975,10.6373331 C14.7466663,10.6373331 18.6666662,8.26266646 18.6666662,5.3333332" id="path208" fill="#000000"></path>
                                                </g>
                                            </g>
                                        </g>
                                    </g>
                                </g>
                            </g>
                        </g>
                    </g>
                </g>
                <g id="g216" transform="translate(71.999993, 96.666653)" fill="url(#linearGradient-11)">
                    <g id="g218-Clipped">
                        <g id="g218">
                            <g id="g224">
                                <g id="g226">
                                    <path d="M1.2133333,11.553333 L1.2133333,1.03733331 C1.2133333,1.03733331 1.57733329,0.346666658 2.84933326,0.346666658 L2.84933326,0.346666658 C4.1239999,0.346666658 4.48799989,1.03733331 4.48799989,1.03733331 L4.48799989,1.03733331 L4.48799989,11.553333 L1.2133333,11.553333 Z" id="path236"></path>
                                </g>
                            </g>
                        </g>
                    </g>
                </g>
                <g id="g238" transform="translate(62.000000, 104.000000)">
                    <g id="g240-Clipped">
                        <g id="g240" transform="translate(0.666659, 0.666653)">
                            <g id="g246" transform="translate(1.668533, 0.610000)" fill="#45ADAA">
                                <path d="M0,7.9999998 L0,26.2653327 C0,26.2653327 0.123999997,27.2799993 0.890666644,27.8119993 C1.79866662,28.442666 2.47199994,28.9266659 3.36133325,29.4946659 C5.82799985,31.0706659 9.07466644,33.0946658 9.82399975,33.4693325 C10.8426664,33.9786658 11.8879997,33.8039992 12.6159997,33.3679992 C13.3439997,32.9306658 20.0839995,29.1026659 21.1759995,28.4479993 C22.2679994,27.7933326 22.0493328,26.9199993 22.0493328,25.682666 L22.0493328,8.27866646 C22.0493328,7.04266649 21.6293328,6.61599983 20.4653328,5.96133318 C19.2999995,5.30666653 14.377333,2.15466661 12.4986664,1.32266663 C11.2266664,0.758666648 10.1879997,0.65066665 9.02399977,1.23199997 C7.85866647,1.81466662 1.30266663,5.73333319 1.30266663,5.73333319 C1.30266663,5.73333319 0,6.61733317 0,7.9999998" id="path248"></path>
                            </g>
                            <g id="g250" transform="translate(0.421600, 1.135733)" fill="#3B9894">
                                <path d="M22.6666661,6.6666665 C21.9546661,6.21066651 15.4879996,2.31066661 15.009333,2.08133328 C14.7839996,1.97333328 14.5706663,1.82533329 14.3386663,1.99866662 C14.1519996,2.13733328 14.1279996,2.29066661 14.1119996,2.41733327 L14.0719996,20.7866661 C14.0719996,20.7866661 14.1759996,21.3893328 14.0479996,21.8826661 C13.9199997,22.3759994 13.385333,22.8413328 13.385333,22.8413328 L5.13999987,27.3839993 C5.13999987,27.3839993 4.57333322,27.610666 4.33599989,28.122666 C4.17733323,28.4653326 4.39866656,28.7679993 4.56399989,28.9399993 C3.69866657,28.3853326 3.35066658,28.2173326 2.41599994,27.6373326 C1.24666664,26.9119993 1.24666664,25.7399994 1.24666664,25.7399994 L1.24666664,7.47466648 C1.24666664,6.09199985 2.54933327,5.20799987 2.54933327,5.20799987 C2.54933327,5.20799987 9.10666644,1.2893333 10.2706664,0.706666649 C11.4346664,0.123999997 12.4746664,0.233333328 13.7466663,0.79599998 C15.6239996,1.62799996 20.5479995,4.77999988 21.7119995,5.43466653 C22.8093328,6.05199985 23.2306661,6.48933317 23.2773328,7.57066648 C23.2239994,7.30266648 23.0853328,6.93466649 22.6666661,6.6666665" id="path252"></path>
                            </g>
                            <g id="g254" transform="translate(1.504800, 1.476933)" fill="#2E7976">
                                <path d="M10.6666664,0 C10.9399997,0.0413333323 11.1759997,0.191999995 11.1959997,0.619999985 C11.2399997,1.5293333 11.1519997,17.8306662 11.1959997,18.8853329 C11.2399997,19.9399995 11.3706664,20.8506661 10.3146664,21.3959995 C9.25999977,21.9413328 3.07466659,25.5053327 2.01999995,26.1599993 C1.27999997,26.6199993 0.483999988,26.3719993 0.289333326,26.0493327 C0.158666663,25.6493327 0.163999996,25.398666 0.163999996,25.398666 L0.163999996,7.13333316 C0.163999996,5.75066652 1.46666663,4.86666654 1.46666663,4.86666654 C1.46666663,4.86666654 6.96799983,1.57866663 8.78133311,0.582666652 C9.11199977,0.430666656 9.36399977,0.315999992 9.54533309,0.235999994 C9.92266642,0.0893333311 10.2946664,0.0079999998 10.6666664,0" id="path256"></path>
                            </g>
                            <g id="g258" transform="translate(13.511200, 21.058266)" fill="#57C4C1">
                                <path d="M9.3333331,7.9999998 C9.1453331,8.11333313 8.77999978,8.32533313 8.31466646,8.59333312 C9.01866644,8.21333313 8.60666645,7.91866647 8.60666645,7.91866647 L0.127999997,3.01333326 L0.295999993,2.91866659 C0.295999993,2.91866659 0.830666646,2.45333327 0.958666643,1.95999995 C1.08666664,1.46666663 0.982666642,0.865333312 0.982666642,0.865333312 L0.982666642,0.793333313 C4.04933323,2.5586666 9.35599977,5.61599986 9.79466642,5.78133319 C10.3586664,5.99466652 10.1639997,4.71733322 10.1866664,4.89599988 L10.2066664,4.91999988 L10.2066664,5.23466654 C10.2066664,6.47199984 10.4253331,7.34533315 9.3333331,7.9999998" id="path260"></path>
                            </g>
                            <g id="g262" transform="translate(10.469600, 20.351733)" fill="#42A5A2">
                                <path d="M3.9999999,2.6666666 C3.8719999,3.15999992 3.33733325,3.62533324 3.33733325,3.62533324 L3.17066659,3.71999991 L1.18799997,2.60933327 C1.2333333,2.58533327 1.31599997,2.5386666 1.35066663,2.52133327 C2.23866661,2.06133328 2.28266661,1.33599997 2.25066661,0.490666654 C2.53199994,0.653333317 3.61866658,1.26666664 4.0239999,1.49999996 L4.0239999,1.57066663 C4.0239999,1.57066663 4.1279999,2.17333328 3.9999999,2.6666666" id="path264"></path>
                            </g>
                        </g>
                    </g>
                </g>
            </g>
        </g>
    </g>
</svg>